<?xml version="1.0" encoding="iso-8859-1"?>
<!-- Generator: Adobe Illustrator 19.0.0, SVG Export Plug-In . SVG Version: 6.00 Build 0)  -->
<svg version="1.1" id="Layer_1" xmlns="http://www.w3.org/2000/svg" xmlns:xlink="http://www.w3.org/1999/xlink" x="0px" y="0px"
	 viewBox="0 0 497.171 497.171" style="enable-background:new 0 0 497.171 497.171;" xml:space="preserve">
<g>
	<path style="fill:#FF5023;" d="M212.315,90.786c29.012-23.979,63.659-39.436,101.279-45.03l41.628-6.19L349.338,0l-41.628,6.19
		c-52.8,7.853-100.688,31.983-138.489,69.785l-14.142,14.142l59.095,59.095l28.284-28.284L212.315,90.786z"/>
	<polygon style="fill:#CD2A00;" points="336.343,356.235 364.627,327.95 333.817,297.14 299.953,319.845 	"/>
	<polygon style="fill:#CD2A00;" points="293.917,398.661 322.201,370.377 283.022,331.198 249.159,353.903 	"/>
	<polygon style="fill:#CD2A00;" points="251.49,441.087 279.774,412.802 232.228,365.256 198.364,387.962 	"/>
	<path style="fill:#CD2A00;" d="M457.606,141.949l-6.191,41.629c-5.595,37.618-21.051,72.266-45.03,101.278l-30.142-30.143
		l-28.285,28.285l59.095,59.094l14.142-14.143c37.802-37.802,61.933-85.69,69.785-138.488l6.191-41.628L457.606,141.949z"/>
	<polygon style="fill:#FF5023;" points="169.221,132.543 140.937,160.829 177.326,197.218 200.032,163.354 	"/>
	<polygon style="fill:#FF5023;" points="126.794,174.97 98.51,203.255 143.268,248.013 165.974,214.149 	"/>
	<polygon style="fill:#FF5023;" points="84.368,217.397 56.084,245.68 109.21,298.807 131.915,264.944 	"/>
	<path style="fill:#FF5023;" d="M394.274,86.12L365.99,57.836l-34.171,34.171c14.082,2.903,27.268,8.978,38.692,17.875
		L394.274,86.12z"/>
	<path style="fill:#CD2A00;" d="M439.335,131.181l-28.284-28.285l-23.764,23.763c8.898,11.424,14.973,24.61,17.876,38.692
		L439.335,131.181z"/>
	<polygon style="fill:#FF7956;" points="266.924,230.247 200.032,163.354 177.326,197.218 165.974,214.149 143.268,248.013 
		131.915,264.944 109.21,298.807 85.025,334.876 123.661,373.511 	"/>
	<path style="fill:#FF0C38;" d="M266.924,230.247l112.494-112.494c-2.827-2.827-5.802-5.452-8.907-7.87
		c-11.424-8.897-24.609-14.972-38.692-17.875c-6.279-1.294-12.734-1.963-19.293-1.963c-25.269,0-49.025,9.841-66.891,27.707
		l-45.603,45.603L266.924,230.247z"/>
	<path style="fill:#D80027;" d="M379.42,251.537c17.866-17.866,27.707-41.623,27.707-66.891c0-6.559-0.669-13.015-1.964-19.294
		c-2.903-14.083-8.979-27.269-17.876-38.692c-2.418-3.104-5.042-6.079-7.869-8.906L266.924,230.247l66.893,66.893L379.42,251.537z"
		/>
	<polygon style="fill:#FF5023;" points="123.661,373.511 162.296,412.146 198.364,387.962 232.228,365.256 249.159,353.903 
		283.022,331.198 299.953,319.845 333.817,297.14 266.924,230.247 	"/>
	<polygon style="fill:#FF0C38;" points="85.025,334.876 84.501,334.352 33.473,362.442 0,395.916 101.256,497.17 134.729,463.697 
		162.82,412.669 162.296,412.146 123.661,373.511 	"/>
</g>
<g>
</g>
<g>
</g>
<g>
</g>
<g>
</g>
<g>
</g>
<g>
</g>
<g>
</g>
<g>
</g>
<g>
</g>
<g>
</g>
<g>
</g>
<g>
</g>
<g>
</g>
<g>
</g>
<g>
</g>
</svg>
